<?xml version="1.0" encoding="utf-8"?>
<!-- Generator: Adobe Illustrator 14.0.0, SVG Export Plug-In . SVG Version: 6.00 Build 43363)  -->
<!DOCTYPE svg PUBLIC "-//W3C//DTD SVG 1.1//EN" "http://www.w3.org/Graphics/SVG/1.1/DTD/svg11.dtd">
<svg version="1.1" id="Layer_1" xmlns="http://www.w3.org/2000/svg" xmlns:xlink="http://www.w3.org/1999/xlink" x="0px" y="0px"
	 width="300px" height="100px" viewBox="0 0 300 100" enable-background="new 0 0 300 100" xml:space="preserve">
<g>
	<path fill="none" stroke="#231815" stroke-width="0.25" d="M164.557,47.548"/>
	<g>
		<polygon fill="none" points="55.191,83.317 54.786,82.211 66.796,77.835 67.202,78.941 55.191,83.317 		"/>
		<path fill="none" d="M91.466,40.034l-16.8-19.664l3.208-14.749l5.381,3.956l20.374,14.436L91.466,40.034L91.466,40.034z
			 M75.948,20.047l15.463,18.105l10.539-13.882L78.64,7.65L75.948,20.047L75.948,20.047z"/>
		<path fill="none" d="M102.44,24.616L82.905,10.246l3.61-8.308l16.746,21.844L102.44,24.616L102.44,24.616z M84.362,9.854
			l15.436,11.355L86.801,4.248L84.362,9.854L84.362,9.854z"/>
		<path fill="none" d="M94.407,53.551l-5.679-11.572l13.858-18.552l21.448,8.377V44.4l-9.212,3.891L94.407,53.551L94.407,53.551z
			 M90.102,42.109l4.941,10.059l19.402-4.993l8.41-3.559V32.611l-19.862-7.76L90.102,42.109L90.102,42.109z"/>
		<polygon fill="none" points="73.606,97.586 65.795,78.185 66.893,77.742 74.704,97.144 73.606,97.586 		"/>
		<path fill="none" d="M111.093,97.135L94.329,53.479l-10.654,0.76l-16.897,18.69l0.156,5.699c0,0.653-1.18,0.653-1.18,0v-6.096
			L83.2,53.252l11.923-1.01l0.152,0.406l15.942,41.518l2.785-46.456l-11.737-23.306c-0.148-0.291-0.028-0.646,0.263-0.793
			c0.29-0.138,0.65-0.023,0.789,0.267l11.802,23.606l-2.886,49.476L111.093,97.135L111.093,97.135z"/>
		<path fill="none" d="M100.038,92.201c-0.217,0-0.429-0.12-0.529-0.331c-0.144-0.292-0.023-0.647,0.271-0.789l8.046-3.956
			c0.294-0.139,0.646-0.022,0.789,0.271c0.142,0.292,0.021,0.647-0.273,0.789l-8.044,3.956
			C100.213,92.182,100.125,92.201,100.038,92.201L100.038,92.201z"/>
		<path fill="none" d="M102.609,97.513H73.975L54.634,83.238c-0.258-0.198-0.313-0.567-0.12-0.83c0.208-0.253,0.572-0.309,0.83-0.12
			l18.986,14.16l26.551-0.111l-6.939-17.732c-0.12-0.304,0.033-0.646,0.331-0.765c0.314-0.12,0.647,0.027,0.766,0.332
			L102.609,97.513L102.609,97.513z"/>
	</g>
	<g>
		<polyline fill="none" points="183.419,52.846 180.149,52.846 180.149,51.273 192.859,51.273 192.859,52.846 188.729,52.846 
			188.536,79.696 192.859,79.696 192.859,81.27 180.149,81.27 180.149,79.696 183.813,79.696 183.911,52.846 		"/>
		<polyline fill="none" points="249.591,52.846 246.317,52.846 246.317,51.273 259.034,51.273 259.034,52.846 254.902,52.846 
			254.703,79.696 259.034,79.696 259.034,81.27 246.317,81.27 246.317,79.696 249.983,79.696 250.08,52.846 		"/>
		<path fill="none" d="M233.336,52.92h-3.762v-1.646h12.687v1.646h-4.058v27.146c0,0,0.296,7.009-7.377,8.78l-0.811-1.182
			c0,0,3.172-1.033,3.246-5.312C233.336,78.075,233.336,52.92,233.336,52.92z"/>
		<polygon fill="none" points="201.616,79.771 205.746,79.771 205.746,81.27 196.746,81.27 196.746,79.771 199.993,79.771 
			199.993,52.846 196.746,52.846 196.746,51.273 205.378,51.273 221.164,75.05 221.164,52.846 217.476,52.846 217.476,51.273 
			226.401,51.273 226.401,52.92 222.859,52.92 222.859,81.27 219.394,81.27 201.688,55.648 		"/>
		<polygon fill="none" points="144.519,79.845 148.281,79.845 148.281,81.27 139.798,81.27 139.798,79.845 143.266,79.845 
			143.266,52.993 139.798,52.993 139.798,51.273 149.314,51.273 158.314,73.205 167.092,51.273 176.875,51.273 176.875,52.772 
			172.772,52.772 172.772,79.696 176.875,79.696 176.875,81.27 164.657,81.27 164.657,79.771 168.272,79.771 168.272,54.248 
			167.609,54.248 156.543,80.878 144.593,54.026 		"/>
	</g>
</g>
</svg>
